<svg width="40" height="40" viewBox="0 0 40 40" fill="none" xmlns="http://www.w3.org/2000/svg">
<circle cx="20" cy="20" r="20" fill="#FF5F5F" fill-opacity="0.65"/>
<path d="M17 20L19 22L23 18M15.8347 12.697C16.5523 12.6398 17.2335 12.3576 17.7813 11.8907C19.0598 10.8012 20.9402 10.8012 22.2187 11.8907C22.7665 12.3576 23.4477 12.6398 24.1653 12.697C25.8397 12.8307 27.1693 14.1603 27.303 15.8347C27.3602 16.5523 27.6424 17.2335 28.1093 17.7813C29.1988 19.0598 29.1988 20.9402 28.1093 22.2187C27.6424 22.7665 27.3602 23.4477 27.303 24.1653C27.1693 25.8397 25.8397 27.1693 24.1653 27.303C23.4477 27.3602 22.7665 27.6424 22.2187 28.1093C20.9402 29.1988 19.0598 29.1988 17.7813 28.1093C17.2335 27.6424 16.5523 27.3602 15.8347 27.303C14.1603 27.1693 12.8307 25.8397 12.697 24.1653C12.6398 23.4477 12.3576 22.7665 11.8907 22.2187C10.8012 20.9402 10.8012 19.0598 11.8907 17.7813C12.3576 17.2335 12.6398 16.5523 12.697 15.8347C12.8307 14.1603 14.1603 12.8307 15.8347 12.697Z" stroke="white" stroke-width="1.5" stroke-linecap="round" stroke-linejoin="round"/>
</svg>
