<svg width="40" height="40" viewBox="0 0 40 40" fill="none" xmlns="http://www.w3.org/2000/svg">
<circle cx="20" cy="20" r="20" fill="#FDAD57" fill-opacity="0.65"/>
<path fill-rule="evenodd" clip-rule="evenodd" d="M23 12C23.6287 12.2096 23.748 12.5508 23.5384 13.1795L18.7384 27.5795C18.5289 28.2082 18.1287 28.7096 17.5 28.5C16.8713 28.2904 16.7904 27.6287 17 27L19.5 20L21.5 13C21.7096 12.3713 22.5 12 23 12ZM14.8485 15.5515C15.3172 16.0201 14.9686 16.5314 14.5 17L11.5 20L14.5 23C14.9686 23.4686 15.3172 23.9799 14.8485 24.4485C14.3799 24.9172 13.6201 24.9172 13.1515 24.4485L9.55148 20.8485C9.08285 20.3799 9.08285 19.6201 9.55148 19.1515L13.1515 15.5515C13.6201 15.0829 14.3799 15.0829 14.8485 15.5515ZM25.5 15.5C25.9686 15.0314 26.3799 15.0829 26.8485 15.5515L30.4485 19.1515C30.9172 19.6201 30.9172 20.3799 30.4485 20.8485L26.8485 24.4485C26.3799 24.9172 25.4686 25.4686 25 25C24.5314 24.5314 25.0314 23.9686 25.5 23.5L29 20L26 17C25.5314 16.5314 25.0314 15.9686 25.5 15.5Z" fill="white"/>
</svg>
